<svg width="26" height="26" viewBox="0 0 26 26" fill="none" xmlns="http://www.w3.org/2000/svg">
<path d="M24.0528 4.48276H1.94721C0.871762 4.48276 0 5.35452 0 6.42996V19.5701C0 20.6455 0.871762 21.5173 1.94721 21.5173H24.0528C25.1282 21.5173 26 20.6455 26 19.5701V6.42996C26 5.35452 25.1282 4.48276 24.0528 4.48276Z" fill="#F5F5F5"/>
<path d="M0.107422 5.79312H25.8932C25.6293 5.03054 24.9054 4.48276 24.0531 4.48276H1.94753C1.09522 4.48276 0.371332 5.03054 0.107422 5.79312Z" fill="#FF4B55"/>
<path d="M26 9.72409H0V11.0344H26V9.72409Z" fill="#FF4B55"/>
<path d="M26 7.10327H0V8.41358H26V7.10327Z" fill="#FF4B55"/>
<path d="M0 13.2069C0 13.4544 0.200738 13.6552 0.448297 13.6552H26V12.3448H0V13.2069Z" fill="#FF4B55"/>
<path d="M26 17.5865H0V18.8969H26V17.5865Z" fill="#FF4B55"/>
<path d="M25.8932 20.2068H0.107422C0.371332 20.9694 1.09527 21.5172 1.94753 21.5172H24.0531C24.9054 21.5172 25.6293 20.9694 25.8932 20.2068Z" fill="#FF4B55"/>
<path d="M26 14.9657H0V16.276H26V14.9657Z" fill="#FF4B55"/>
<path d="M0.448297 13.6552H11.6552C11.9028 13.6552 12.1035 13.4545 12.1035 13.2069V4.93102C12.1035 4.68341 11.9028 4.48273 11.6552 4.48273H1.94721C0.871762 4.48278 0 5.35454 0 6.42998V13.2069C0 13.4545 0.200738 13.6552 0.448297 13.6552Z" fill="#41479B"/>
<path d="M1.25966 5.51178L1.35888 5.80936L1.67256 5.81175C1.71318 5.8121 1.72999 5.8639 1.69734 5.88802L1.44501 6.07434L1.53966 6.37339C1.55195 6.41208 1.50782 6.44418 1.47477 6.42051L1.21959 6.23816L0.964416 6.42056C0.931358 6.44423 0.88733 6.41213 0.899518 6.37344L0.994174 6.07439L0.741842 5.88807C0.70919 5.8639 0.725999 5.8121 0.766624 5.8118L1.0803 5.80941L1.17952 5.51183C1.19232 5.47324 1.24676 5.47324 1.25966 5.51178Z" fill="#F5F5F5"/>
<path d="M1.25966 7.06829L1.35888 7.36587L1.67256 7.36826C1.71318 7.36862 1.72999 7.42036 1.69734 7.44453L1.44501 7.6309L1.53966 7.92996C1.55195 7.96865 1.50782 8.00075 1.47477 7.97708L1.21959 7.79473L0.964416 7.97713C0.931358 8.00075 0.88733 7.9687 0.899518 7.93001L0.994174 7.63095L0.741842 7.44458C0.70919 7.42041 0.725999 7.36867 0.766624 7.36831L1.0803 7.36592L1.17952 7.06834C1.19232 7.0298 1.24676 7.0298 1.25966 7.06829Z" fill="#F5F5F5"/>
<path d="M1.25966 8.62503L1.35888 8.92261L1.67256 8.925C1.71318 8.92535 1.72999 8.9771 1.69734 9.00127L1.44501 9.18764L1.53966 9.48669C1.55195 9.52538 1.50782 9.55748 1.47477 9.53382L1.21959 9.35146L0.964416 9.53387C0.931358 9.55748 0.88733 9.52549 0.899518 9.48674L0.994174 9.18769L0.741842 9.00132C0.70919 8.97715 0.725999 8.9254 0.766624 8.92505L1.0803 8.92266L1.17952 8.62508C1.19232 8.58649 1.24676 8.58649 1.25966 8.62503Z" fill="#F5F5F5"/>
<path d="M1.25966 10.1816L1.35888 10.4792L1.67256 10.4816C1.71318 10.482 1.72999 10.5338 1.69734 10.5579L1.44501 10.7442L1.53966 11.0433C1.55195 11.082 1.50782 11.1141 1.47477 11.0904L1.21959 10.9081L0.964416 11.0905C0.931358 11.1141 0.88733 11.082 0.899518 11.0433L0.994174 10.7443L0.741842 10.5579C0.70919 10.5339 0.725999 10.482 0.766624 10.4817L1.0803 10.4793L1.17952 10.1817C1.19232 10.1431 1.24676 10.1431 1.25966 10.1816Z" fill="#F5F5F5"/>
<path d="M1.25966 11.7383L1.35888 12.0359L1.67256 12.0383C1.71318 12.0386 1.72999 12.0904 1.69734 12.1145L1.44501 12.3009L1.53966 12.6C1.55195 12.6387 1.50782 12.6707 1.47477 12.6471L1.21959 12.4647L0.964416 12.6471C0.931358 12.6707 0.88733 12.6387 0.899518 12.6L0.994174 12.301L0.741842 12.1146C0.70919 12.0904 0.725999 12.0387 0.766624 12.0383L1.0803 12.0359L1.17952 11.7384C1.19232 11.6998 1.24676 11.6998 1.25966 11.7383Z" fill="#F5F5F5"/>
<path d="M2.46864 6.27484L2.56787 6.57242L2.88154 6.57481C2.92217 6.57516 2.93898 6.62696 2.90632 6.65108L2.65399 6.83745L2.74865 7.1365C2.76094 7.1752 2.71681 7.20729 2.68375 7.18363L2.42858 7.00122L2.1734 7.18363C2.14034 7.20724 2.09631 7.1752 2.1085 7.1365L2.20316 6.83745L1.95083 6.65108C1.91817 6.62691 1.93498 6.57516 1.97561 6.57481L2.28928 6.57242L2.38851 6.27484C2.40131 6.23635 2.45579 6.23635 2.46864 6.27484Z" fill="#F5F5F5"/>
<path d="M2.46864 7.83158L2.56787 8.12916L2.88154 8.13155C2.92217 8.1319 2.93898 8.1837 2.90632 8.20782L2.65399 8.39419L2.74865 8.69324C2.76094 8.73193 2.71681 8.76403 2.68375 8.74036L2.42858 8.55796L2.1734 8.74036C2.14034 8.76398 2.09631 8.73198 2.1085 8.69324L2.20316 8.39419L1.95083 8.20782C1.91817 8.18375 1.93498 8.1319 1.97561 8.13155L2.28928 8.12916L2.38851 7.83158C2.40131 7.79304 2.45579 7.79304 2.46864 7.83158Z" fill="#F5F5F5"/>
<path d="M2.46864 9.38819L2.56787 9.68577L2.88154 9.68816C2.92217 9.68851 2.93898 9.74026 2.90632 9.76443L2.65399 9.9508L2.74865 10.2499C2.76094 10.2885 2.71681 10.3206 2.68375 10.297L2.42858 10.1146L2.1734 10.297C2.14034 10.3206 2.09631 10.2885 2.1085 10.2499L2.20316 9.9508L1.95083 9.76443C1.91817 9.74026 1.93498 9.68851 1.97561 9.68816L2.28928 9.68577L2.38851 9.38819C2.40131 9.34965 2.45579 9.34965 2.46864 9.38819Z" fill="#F5F5F5"/>
<path d="M2.46864 10.9448L2.56787 11.2424L2.88154 11.2448C2.92217 11.2451 2.93898 11.2969 2.90632 11.3211L2.65399 11.5074L2.74865 11.8065C2.76094 11.8452 2.71681 11.8773 2.68375 11.8536L2.42858 11.6712L2.1734 11.8536C2.14034 11.8773 2.09631 11.8452 2.1085 11.8065L2.20316 11.5074L1.95083 11.3211C1.91817 11.2969 1.93498 11.2451 1.97561 11.2448L2.28928 11.2424L2.38851 10.9448C2.40131 10.9063 2.45579 10.9063 2.46864 10.9448Z" fill="#F5F5F5"/>
<path d="M3.67567 5.51166L3.7749 5.80924L4.08857 5.81163C4.1292 5.81199 4.14601 5.86378 4.11336 5.8879L3.86102 6.07422L3.95568 6.37327C3.96797 6.41197 3.92384 6.44406 3.89078 6.4204L3.63561 6.23799L3.38043 6.4204C3.34737 6.44406 3.30335 6.41197 3.31553 6.37327L3.41019 6.07422L3.15786 5.8879C3.12521 5.86373 3.14201 5.81193 3.18264 5.81163L3.49631 5.80924L3.59554 5.51166C3.60834 5.47312 3.66283 5.47312 3.67567 5.51166Z" fill="#F5F5F5"/>
<path d="M3.67567 7.0683L3.7749 7.36588L4.08857 7.36826C4.1292 7.36862 4.14601 7.42036 4.11336 7.44454L3.86102 7.6309L3.95568 7.92995C3.96797 7.96865 3.92384 8.00074 3.89078 7.97708L3.63561 7.79467L3.38043 7.97708C3.34737 8.00069 3.30335 7.96865 3.31553 7.92995L3.41019 7.6309L3.15786 7.44454C3.12521 7.42036 3.14201 7.36862 3.18264 7.36826L3.49631 7.36588L3.59554 7.0683C3.60834 7.02981 3.66283 7.02981 3.67567 7.0683Z" fill="#F5F5F5"/>
<path d="M3.67567 8.62504L3.7749 8.92262L4.08857 8.925C4.1292 8.92536 4.14601 8.9771 4.11336 9.00128L3.86102 9.18764L3.95568 9.48669C3.96797 9.52539 3.92384 9.55748 3.89078 9.53382L3.63561 9.35141L3.38043 9.53382C3.34737 9.55743 3.30335 9.52544 3.31553 9.48669L3.41019 9.18764L3.15786 9.00128C3.12521 8.9771 3.14201 8.92536 3.18264 8.925L3.49631 8.92262L3.59554 8.62504C3.60834 8.58649 3.66283 8.58649 3.67567 8.62504Z" fill="#F5F5F5"/>
<path d="M3.67567 10.1816L3.7749 10.4792L4.08857 10.4816C4.1292 10.482 4.14601 10.5338 4.11336 10.5579L3.86102 10.7443L3.95568 11.0433C3.96797 11.082 3.92384 11.1141 3.89078 11.0904L3.63561 10.908L3.38043 11.0904C3.34737 11.114 3.30335 11.082 3.31553 11.0433L3.41019 10.7443L3.15786 10.5579C3.12521 10.5338 3.14201 10.482 3.18264 10.4816L3.49631 10.4792L3.59554 10.1816C3.60834 10.1431 3.66283 10.1431 3.67567 10.1816Z" fill="#F5F5F5"/>
<path d="M3.67567 11.7383L3.7749 12.0359L4.08857 12.0382C4.1292 12.0386 4.14601 12.0903 4.11336 12.1145L3.86102 12.3009L3.95568 12.5999C3.96797 12.6386 3.92384 12.6707 3.89078 12.6471L3.63561 12.4647L3.38043 12.6471C3.34737 12.6707 3.30335 12.6386 3.31553 12.5999L3.41019 12.3009L3.15786 12.1145C3.12521 12.0903 3.14201 12.0386 3.18264 12.0382L3.49631 12.0359L3.59554 11.7383C3.60834 11.6998 3.66283 11.6998 3.67567 11.7383Z" fill="#F5F5F5"/>
<path d="M4.88466 6.27484L4.98389 6.57242L5.29756 6.57481C5.33819 6.57516 5.35499 6.62696 5.32234 6.65108L5.07001 6.83745L5.16467 7.1365C5.17696 7.1752 5.13283 7.20729 5.09977 7.18363L4.84459 7.00122L4.58942 7.18363C4.55636 7.20724 4.51233 7.1752 4.52452 7.1365L4.61917 6.83745L4.36684 6.65108C4.33419 6.62691 4.351 6.57516 4.39162 6.57481L4.7053 6.57242L4.80453 6.27484C4.81727 6.23635 4.87181 6.23635 4.88466 6.27484Z" fill="#F5F5F5"/>
<path d="M4.88466 7.83158L4.98389 8.12916L5.29756 8.13155C5.33819 8.1319 5.35499 8.1837 5.32234 8.20782L5.07001 8.39419L5.16467 8.69324C5.17696 8.73193 5.13283 8.76403 5.09977 8.74036L4.84459 8.55796L4.58942 8.74036C4.55636 8.76398 4.51233 8.73198 4.52452 8.69324L4.61917 8.39419L4.36684 8.20782C4.33419 8.18375 4.351 8.1319 4.39162 8.13155L4.7053 8.12916L4.80453 7.83158C4.81727 7.79304 4.87181 7.79304 4.88466 7.83158Z" fill="#F5F5F5"/>
<path d="M4.88466 9.38819L4.98389 9.68577L5.29756 9.68816C5.33819 9.68851 5.35499 9.74026 5.32234 9.76443L5.07001 9.9508L5.16467 10.2499C5.17696 10.2885 5.13283 10.3206 5.09977 10.297L4.84459 10.1146L4.58942 10.297C4.55636 10.3206 4.51233 10.2885 4.52452 10.2499L4.61917 9.9508L4.36684 9.76443C4.33419 9.74026 4.351 9.68851 4.39162 9.68816L4.7053 9.68577L4.80453 9.38819C4.81727 9.34965 4.87181 9.34965 4.88466 9.38819Z" fill="#F5F5F5"/>
<path d="M4.88466 10.9448L4.98389 11.2424L5.29756 11.2448C5.33819 11.2451 5.35499 11.2969 5.32234 11.3211L5.07001 11.5074L5.16467 11.8065C5.17696 11.8452 5.13283 11.8773 5.09977 11.8536L4.84459 11.6712L4.58942 11.8536C4.55636 11.8773 4.51233 11.8452 4.52452 11.8065L4.61917 11.5074L4.36684 11.3211C4.33419 11.2969 4.351 11.2451 4.39162 11.2448L4.7053 11.2424L4.80453 10.9448C4.81727 10.9063 4.87181 10.9063 4.88466 10.9448Z" fill="#F5F5F5"/>
<path d="M6.09174 5.51166L6.19097 5.80924L6.50465 5.81162C6.54527 5.81198 6.56208 5.86378 6.52943 5.8879L6.27709 6.07421L6.37175 6.37326C6.38404 6.41196 6.33991 6.44405 6.30685 6.42039L6.05162 6.23803L5.79645 6.42044C5.76339 6.4441 5.71936 6.41201 5.73155 6.37331L5.82621 6.07426L5.57387 5.88795C5.54122 5.86378 5.55803 5.81198 5.59865 5.81167L5.91233 5.80929L6.01156 5.51171C6.02441 5.47312 6.07889 5.47312 6.09174 5.51166Z" fill="#F5F5F5"/>
<path d="M6.09174 7.0683L6.19097 7.36588L6.50465 7.36826C6.54527 7.36862 6.56208 7.42036 6.52943 7.44454L6.27709 7.6309L6.37175 7.92995C6.38404 7.96865 6.33991 8.00074 6.30685 7.97708L6.05162 7.79467L5.79645 7.97708C5.76339 8.00069 5.71936 7.96865 5.73155 7.92995L5.82621 7.6309L5.57387 7.44454C5.54122 7.42036 5.55803 7.36862 5.59865 7.36826L5.91233 7.36588L6.01156 7.0683C6.02441 7.02981 6.07889 7.02981 6.09174 7.0683Z" fill="#F5F5F5"/>
<path d="M6.09174 8.62501L6.19097 8.92259L6.50465 8.92498C6.54527 8.92533 6.56208 8.97708 6.52943 9.00125L6.27709 9.18762L6.37175 9.48667C6.38404 9.52536 6.33991 9.55746 6.30685 9.53379L6.05162 9.35134L5.79645 9.53374C5.76339 9.55736 5.71936 9.52531 5.73155 9.48662L5.82621 9.18757L5.57387 9.0012C5.54122 8.97703 5.55803 8.92528 5.59865 8.92493L5.91233 8.92254L6.01156 8.62496C6.02441 8.58647 6.07889 8.58647 6.09174 8.62501Z" fill="#F5F5F5"/>
<path d="M6.09174 10.1816L6.19097 10.4792L6.50465 10.4816C6.54527 10.482 6.56208 10.5338 6.52943 10.5579L6.27709 10.7443L6.37175 11.0433C6.38404 11.082 6.33991 11.1141 6.30685 11.0904L6.05162 10.908L5.79645 11.0904C5.76339 11.114 5.71936 11.082 5.73155 11.0433L5.82621 10.7443L5.57387 10.5579C5.54122 10.5338 5.55803 10.482 5.59865 10.4816L5.91233 10.4792L6.01156 10.1816C6.02441 10.1431 6.07889 10.1431 6.09174 10.1816Z" fill="#F5F5F5"/>
<path d="M6.09174 11.7383L6.19097 12.0359L6.50465 12.0382C6.54527 12.0386 6.56208 12.0903 6.52943 12.1145L6.27709 12.3009L6.37175 12.5999C6.38404 12.6386 6.33991 12.6707 6.30685 12.6471L6.05162 12.4647L5.79645 12.6471C5.76339 12.6707 5.71936 12.6386 5.73155 12.5999L5.82621 12.3009L5.57387 12.1145C5.54122 12.0903 5.55803 12.0386 5.59865 12.0382L5.91233 12.0359L6.01156 11.7383C6.02441 11.6998 6.07889 11.6998 6.09174 11.7383Z" fill="#F5F5F5"/>
<path d="M7.30067 6.27484L7.3999 6.57242L7.71357 6.57481C7.75419 6.57516 7.771 6.62696 7.73835 6.65108L7.48602 6.83745L7.58067 7.1365C7.59296 7.1752 7.54884 7.20729 7.51578 7.18363L7.2606 7.00122L7.00543 7.18363C6.97237 7.20724 6.92834 7.1752 6.94053 7.1365L7.03519 6.83745L6.78286 6.65108C6.75021 6.62691 6.76701 6.57516 6.80764 6.57481L7.12131 6.57242L7.22054 6.27484C7.23339 6.23635 7.28782 6.23635 7.30067 6.27484Z" fill="#F5F5F5"/>
<path d="M7.30067 7.83158L7.3999 8.12916L7.71357 8.13155C7.75419 8.1319 7.771 8.1837 7.73835 8.20782L7.48602 8.39419L7.58067 8.69324C7.59296 8.73193 7.54884 8.76403 7.51578 8.74036L7.2606 8.55796L7.00543 8.74036C6.97237 8.76398 6.92834 8.73198 6.94053 8.69324L7.03519 8.39419L6.78286 8.20782C6.75021 8.18375 6.76701 8.1319 6.80764 8.13155L7.12131 8.12916L7.22054 7.83158C7.23339 7.79304 7.28782 7.79304 7.30067 7.83158Z" fill="#F5F5F5"/>
<path d="M7.30067 9.38819L7.3999 9.68577L7.71357 9.68816C7.75419 9.68851 7.771 9.74026 7.73835 9.76443L7.48602 9.9508L7.58067 10.2499C7.59296 10.2885 7.54884 10.3206 7.51578 10.297L7.2606 10.1146L7.00543 10.297C6.97237 10.3206 6.92834 10.2885 6.94053 10.2499L7.03519 9.9508L6.78286 9.76443C6.75021 9.74026 6.76701 9.68851 6.80764 9.68816L7.12131 9.68577L7.22054 9.38819C7.23339 9.34965 7.28782 9.34965 7.30067 9.38819Z" fill="#F5F5F5"/>
<path d="M7.30067 10.9448L7.3999 11.2424L7.71357 11.2448C7.75419 11.2451 7.771 11.2969 7.73835 11.3211L7.48602 11.5074L7.58067 11.8065C7.59296 11.8452 7.54884 11.8773 7.51578 11.8536L7.2606 11.6712L7.00543 11.8536C6.97237 11.8773 6.92834 11.8452 6.94053 11.8065L7.03519 11.5074L6.78286 11.3211C6.75021 11.2969 6.76701 11.2451 6.80764 11.2448L7.12131 11.2424L7.22054 10.9448C7.23339 10.9063 7.28782 10.9063 7.30067 10.9448Z" fill="#F5F5F5"/>
<path d="M8.50965 5.51166L8.60888 5.80924L8.92255 5.81163C8.96318 5.81199 8.97999 5.86378 8.94733 5.8879L8.695 6.07422L8.78966 6.37327C8.80195 6.41197 8.75782 6.44406 8.72476 6.4204L8.46959 6.23799L8.21441 6.4204C8.18136 6.44406 8.13733 6.41197 8.14952 6.37327L8.24417 6.07422L7.99184 5.8879C7.95919 5.86373 7.976 5.81193 8.01662 5.81163L8.3303 5.80924L8.42952 5.51166C8.44227 5.47312 8.49681 5.47312 8.50965 5.51166Z" fill="#F5F5F5"/>
<path d="M8.50965 7.0683L8.60888 7.36588L8.92255 7.36826C8.96318 7.36862 8.97999 7.42036 8.94733 7.44454L8.695 7.6309L8.78966 7.92995C8.80195 7.96865 8.75782 8.00074 8.72476 7.97708L8.46959 7.79467L8.21441 7.97708C8.18136 8.00069 8.13733 7.96865 8.14952 7.92995L8.24417 7.6309L7.99184 7.44454C7.95919 7.42036 7.976 7.36862 8.01662 7.36826L8.3303 7.36588L8.42952 7.0683C8.44227 7.02981 8.49681 7.02981 8.50965 7.0683Z" fill="#F5F5F5"/>
<path d="M8.50965 8.62504L8.60888 8.92262L8.92255 8.925C8.96318 8.92536 8.97999 8.9771 8.94733 9.00128L8.695 9.18764L8.78966 9.48669C8.80195 9.52539 8.75782 9.55748 8.72476 9.53382L8.46959 9.35141L8.21441 9.53382C8.18136 9.55743 8.13733 9.52544 8.14952 9.48669L8.24417 9.18764L7.99184 9.00128C7.95919 8.9771 7.976 8.92536 8.01662 8.925L8.3303 8.92262L8.42952 8.62504C8.44227 8.58649 8.49681 8.58649 8.50965 8.62504Z" fill="#F5F5F5"/>
<path d="M8.50965 10.1816L8.60888 10.4792L8.92255 10.4816C8.96318 10.482 8.97999 10.5338 8.94733 10.5579L8.695 10.7443L8.78966 11.0433C8.80195 11.082 8.75782 11.1141 8.72476 11.0904L8.46959 10.908L8.21441 11.0904C8.18136 11.114 8.13733 11.082 8.14952 11.0433L8.24417 10.7443L7.99184 10.5579C7.95919 10.5338 7.976 10.482 8.01662 10.4816L8.3303 10.4792L8.42952 10.1816C8.44227 10.1431 8.49681 10.1431 8.50965 10.1816Z" fill="#F5F5F5"/>
<path d="M8.50965 11.7383L8.60888 12.0359L8.92255 12.0382C8.96318 12.0386 8.97999 12.0903 8.94733 12.1145L8.695 12.3009L8.78966 12.5999C8.80195 12.6386 8.75782 12.6707 8.72476 12.6471L8.46959 12.4647L8.21441 12.6471C8.18136 12.6707 8.13733 12.6386 8.14952 12.5999L8.24417 12.3009L7.99184 12.1145C7.95919 12.0903 7.976 12.0386 8.01662 12.0382L8.3303 12.0359L8.42952 11.7383C8.44227 11.6998 8.49681 11.6998 8.50965 11.7383Z" fill="#F5F5F5"/>
<path d="M9.71669 6.27484L9.81591 6.57242L10.1296 6.57481C10.1702 6.57516 10.187 6.62696 10.1544 6.65108L9.90204 6.83745L9.99669 7.1365C10.009 7.1752 9.96485 7.20729 9.9318 7.18363L9.67662 7.00122L9.42145 7.18363C9.38839 7.20724 9.34436 7.1752 9.35655 7.1365L9.4512 6.83745L9.19887 6.65108C9.16622 6.62691 9.18303 6.57516 9.22365 6.57481L9.53733 6.57242L9.63656 6.27484C9.64935 6.23635 9.70384 6.23635 9.71669 6.27484Z" fill="#F5F5F5"/>
<path d="M9.71669 7.83158L9.81591 8.12916L10.1296 8.13155C10.1702 8.1319 10.187 8.1837 10.1544 8.20782L9.90204 8.39419L9.99669 8.69324C10.009 8.73193 9.96485 8.76403 9.9318 8.74036L9.67662 8.55796L9.42145 8.74036C9.38839 8.76398 9.34436 8.73198 9.35655 8.69324L9.4512 8.39419L9.19887 8.20782C9.16622 8.18375 9.18303 8.1319 9.22365 8.13155L9.53733 8.12916L9.63656 7.83158C9.64935 7.79304 9.70384 7.79304 9.71669 7.83158Z" fill="#F5F5F5"/>
<path d="M9.71669 9.38819L9.81591 9.68577L10.1296 9.68816C10.1702 9.68851 10.187 9.74026 10.1544 9.76443L9.90204 9.9508L9.99669 10.2499C10.009 10.2885 9.96485 10.3206 9.9318 10.297L9.67662 10.1146L9.42145 10.297C9.38839 10.3206 9.34436 10.2885 9.35655 10.2499L9.4512 9.9508L9.19887 9.76443C9.16622 9.74026 9.18303 9.68851 9.22365 9.68816L9.53733 9.68577L9.63656 9.38819C9.64935 9.34965 9.70384 9.34965 9.71669 9.38819Z" fill="#F5F5F5"/>
<path d="M9.71669 10.9448L9.81591 11.2424L10.1296 11.2448C10.1702 11.2451 10.187 11.2969 10.1544 11.3211L9.90204 11.5074L9.99669 11.8065C10.009 11.8452 9.96485 11.8773 9.9318 11.8536L9.67662 11.6712L9.42145 11.8536C9.38839 11.8773 9.34436 11.8452 9.35655 11.8065L9.4512 11.5074L9.19887 11.3211C9.16622 11.2969 9.18303 11.2451 9.22365 11.2448L9.53733 11.2424L9.63656 10.9448C9.64935 10.9063 9.70384 10.9063 9.71669 10.9448Z" fill="#F5F5F5"/>
<path d="M10.9257 5.51166L11.0249 5.80924L11.3386 5.81163C11.3792 5.81199 11.396 5.86378 11.3634 5.8879L11.111 6.07422L11.2057 6.37327C11.218 6.41197 11.1738 6.44406 11.1408 6.4204L10.8856 6.23799L10.6304 6.4204C10.5974 6.44406 10.5533 6.41197 10.5655 6.37327L10.6602 6.07422L10.4079 5.8879C10.3752 5.86373 10.392 5.81193 10.4326 5.81163L10.7463 5.80924L10.8455 5.51166C10.8583 5.47312 10.9128 5.47312 10.9257 5.51166Z" fill="#F5F5F5"/>
<path d="M10.9257 7.0683L11.0249 7.36588L11.3386 7.36826C11.3792 7.36862 11.396 7.42036 11.3634 7.44454L11.111 7.6309L11.2057 7.92995C11.218 7.96865 11.1738 8.00074 11.1408 7.97708L10.8856 7.79467L10.6304 7.97708C10.5974 8.00069 10.5533 7.96865 10.5655 7.92995L10.6602 7.6309L10.4079 7.44454C10.3752 7.42036 10.392 7.36862 10.4326 7.36826L10.7463 7.36588L10.8455 7.0683C10.8583 7.02981 10.9128 7.02981 10.9257 7.0683Z" fill="#F5F5F5"/>
<path d="M10.9257 8.62504L11.0249 8.92262L11.3386 8.925C11.3792 8.92536 11.396 8.9771 11.3634 9.00128L11.111 9.18764L11.2057 9.48669C11.218 9.52539 11.1738 9.55748 11.1408 9.53382L10.8856 9.35141L10.6304 9.53382C10.5974 9.55743 10.5533 9.52544 10.5655 9.48669L10.6602 9.18764L10.4079 9.00128C10.3752 8.9771 10.392 8.92536 10.4326 8.925L10.7463 8.92262L10.8455 8.62504C10.8583 8.58649 10.9128 8.58649 10.9257 8.62504Z" fill="#F5F5F5"/>
<path d="M10.9257 10.1816L11.0249 10.4792L11.3386 10.4816C11.3792 10.482 11.396 10.5338 11.3634 10.5579L11.111 10.7443L11.2057 11.0433C11.218 11.082 11.1738 11.1141 11.1408 11.0904L10.8856 10.908L10.6304 11.0904C10.5974 11.114 10.5533 11.082 10.5655 11.0433L10.6602 10.7443L10.4079 10.5579C10.3752 10.5338 10.392 10.482 10.4326 10.4816L10.7463 10.4792L10.8455 10.1816C10.8583 10.1431 10.9128 10.1431 10.9257 10.1816Z" fill="#F5F5F5"/>
<path d="M10.9257 11.7383L11.0249 12.0359L11.3386 12.0382C11.3792 12.0386 11.396 12.0903 11.3634 12.1145L11.111 12.3009L11.2057 12.5999C11.218 12.6386 11.1738 12.6707 11.1408 12.6471L10.8856 12.4647L10.6304 12.6471C10.5974 12.6707 10.5533 12.6386 10.5655 12.5999L10.6602 12.3009L10.4079 12.1145C10.3752 12.0903 10.392 12.0386 10.4326 12.0382L10.7463 12.0359L10.8455 11.7383C10.8583 11.6998 10.9128 11.6998 10.9257 11.7383Z" fill="#F5F5F5"/>
</svg>
